<svg id="Layer_1" data-name="Layer 1" xmlns="http://www.w3.org/2000/svg" xmlns:xlink="http://www.w3.org/1999/xlink"
    viewBox="0 0 651.77 110.47">
    <defs>
        <style>
            .cls-1 {
                fill: none;
            }

            .cls-2 {
                clip-path: url(#clip-path);
            }

            .cls-3 {
                fill: #6f1010;
            }

            .cls-4 {
                fill: #b62b2d;
            }

            .cls-5 {
                fill: #99191e;
            }

            .cls-6 {
                fill: #fff;
            }

            .cls-7 {
                font-size: 93.39px;
                font-family: ArialMT, Arial;
            }

            .cls-8 {
                letter-spacing: -0.04em;
            }
        </style>
        <clipPath id="clip-path">
            <circle class="cls-1" cx="40.98" cy="53.14" r="40.98" />
        </clipPath>
    </defs>
    <g class="cls-2">
        <path class="cls-3"
            d="M20.25,59.36A40.23,40.23,0,0,0,.05,54.94,41,41,0,0,0,40,94.1C43.42,81.81,35.31,67,20.25,59.36Z" />
        <path class="cls-4"
            d="M82,53.14A41,41,0,0,0,1.53,42.05c10.12-5.9,24.89-5.56,38,2C57.26,54.3,65.13,74,57.05,87.93A22.9,22.9,0,0,1,54,92,41,41,0,0,0,82,53.14Z" />
        <path class="cls-5"
            d="M39.49,44c-13.07-7.55-27.84-7.89-38-2A41,41,0,0,0,0,53.14c0,.6,0,1.2.05,1.8a40.23,40.23,0,0,1,20.2,4.42C35.31,67,43.42,81.81,40,94.1l1,0A40.8,40.8,0,0,0,54,92a22.9,22.9,0,0,0,3-4.06C65.13,74,57.26,54.3,39.49,44Z" />
        <path class="cls-6"
            d="M10.58,81.22l-4.64-2.5c2.23-4.14,4.53-6.35,7.24-7,3.31-.75,6,1.19,8,2.62a8.87,8.87,0,0,0,2.36,1.41c3.09-.8,3.7-4.28,4.34-9.92.51-4.53,1-9.23,4.64-11.41,4.45-2.69,7.88-.08,10.15,1.65,1.82,1.39,2.72,2,3.71,1.68,1.4-.4,2.23-5.12,2.78-8.24,1.07-6,2.27-12.88,8.29-13.82,3.7-.58,6.42,1.5,8.4,3,1.19.91,2.33,1.77,3,1.64,2-.36,2.45-6.22,2.8-10.92.12-1.71.26-3.46.45-5.18l5.24.59c-.19,1.65-.32,3.34-.44,5C76.38,37,75.82,44.47,69.8,45.56c-3,.55-5.31-1.22-7.16-2.64s-3-2.22-4.39-2c-2.29.36-3.15,5.24-3.91,9.54-1,5.44-2,11.07-6.52,12.39-3.63,1-6.36-1-8.36-2.56-2.44-1.86-3-2.05-4.22-1.33-1.39.84-1.78,4.37-2.14,7.5-.63,5.63-1.42,12.65-8.32,14.43-2.62.68-4.79-.87-6.69-2.25-1.35-1-2.75-2-3.73-1.75C13.87,77,12.5,77.65,10.58,81.22Z" />
    </g><text class="cls-7" transform="translate(99.3 80.14)">
        <tspan class="cls-8">T</tspan>
        <tspan x="53.58" y="0">riple Chasm</tspan>
    </text>
</svg>